<?xml version="1.0" encoding="utf-8"?>
<!-- Svg Vector Icons : http://www.onlinewebfonts.com/icon -->
<!DOCTYPE svg PUBLIC "-//W3C//DTD SVG 1.1//EN" "http://www.w3.org/Graphics/SVG/1.1/DTD/svg11.dtd">
<svg version="1.1" xmlns="http://www.w3.org/2000/svg" xmlns:xlink="http://www.w3.org/1999/xlink" x="0px" y="0px" viewBox="0 0 256 256" enable-background="new 0 0 256 256" xml:space="preserve">
<metadata> Svg Vector Icons : http://www.onlinewebfonts.com/icon </metadata>
<g><g><path fill="#000000" d="M167.7,10.1l-11.6,27.3l62.9,62.9L246,88.8L167.7,10.1z"/><path fill="#000000" d="M58.7,100.2c0,0,13.9,62.3-48.7,124.9c1.4,1.4,3,3,4.5,4.5l100.1-100c-1.3-2.9-2.1-6-2.1-9.4c0-12.3,9.9-22.2,22.2-22.2c12.3,0,22.2,9.9,22.2,22.2c0,12.3-9.9,22.2-22.2,22.2c-3.5,0-6.7-0.9-9.7-2.3l-99.9,100c2,2,3.5,3.5,5.8,5.8c62.9-62.8,125.2-48.7,125.2-48.7l40.8-89.6l-48.7-48.7L58.7,100.2L58.7,100.2z"/></g></g>
</svg>